<?xml version="1.0" standalone="no"?>
<!DOCTYPE svg PUBLIC "-//W3C//DTD SVG 20010904//EN"
 "http://www.w3.org/TR/2001/REC-SVG-20010904/DTD/svg10.dtd">
<svg version="1.0" xmlns="http://www.w3.org/2000/svg"
 width="284.000000pt" height="196.000000pt" viewBox="0 0 284.000000 196.000000"
 preserveAspectRatio="xMidYMid meet">

<g transform="translate(0.000000,196.000000) scale(0.100000,-0.100000)"
fill="#000000" stroke="none">
<path d="M705 1949 c-360 -67 -594 -316 -681 -724 -24 -111 -24 -359 -1 -478
72 -361 267 -618 542 -713 71 -25 94 -28 210 -29 154 0 251 19 354 71 88 44
192 139 225 206 47 95 27 172 -43 170 -44 -1 -65 -16 -114 -80 -104 -135 -194
-187 -322 -187 -70 0 -87 4 -134 30 -145 80 -242 293 -272 596 -35 369 52 735
217 906 44 46 55 53 90 53 50 0 74 -21 158 -137 81 -112 117 -133 224 -133
119 0 212 46 212 105 0 43 -51 128 -111 186 -138 133 -355 194 -554 158z"/>
<path d="M1805 1939 c-91 -11 -155 -62 -174 -137 -30 -114 -51 -446 -58 -897
-8 -552 13 -779 76 -837 74 -67 264 -64 290 5 13 33 29 216 36 407 3 85 8 200
11 255 l6 100 219 1 219 1 0 -226 c0 -263 14 -478 35 -527 20 -48 70 -68 149
-61 121 11 144 58 180 357 33 272 40 432 41 880 0 572 -6 615 -96 661 -48 24
-138 25 -186 2 -87 -41 -99 -104 -113 -596 -4 -175 -10 -320 -12 -322 -20 -20
-414 -33 -432 -14 -3 3 -1 149 5 325 11 314 9 533 -5 566 -19 43 -104 68 -191
57z"/>
</g>
</svg>
