<?xml version="1.0" standalone="no"?>
<!DOCTYPE svg PUBLIC "-//W3C//DTD SVG 20010904//EN"
 "http://www.w3.org/TR/2001/REC-SVG-20010904/DTD/svg10.dtd">
<svg version="1.0" xmlns="http://www.w3.org/2000/svg"
 width="1920.000000pt" height="256.000000pt" viewBox="0 0 1920.000000 256.000000"
 preserveAspectRatio="xMidYMid meet">

<g transform="translate(0.000000,256.000000) scale(0.100000,-0.100000)"
fill="#000000" stroke="none">
<path d="M1075 2529 c-49 -5 -101 -13 -115 -18 -14 -6 -53 -17 -87 -25 -57
-14 -148 -54 -249 -110 -67 -37 -195 -146 -275 -233 -159 -176 -284 -431 -321
-655 -6 -38 -14 -68 -19 -68 -5 0 -9 -56 -9 -125 0 -69 4 -125 9 -125 4 0 11
-33 14 -72 11 -138 90 -321 181 -417 51 -53 164 -141 183 -141 7 0 24 -6 36
-14 79 -51 306 -66 432 -28 138 41 235 87 334 156 70 50 186 161 223 214 16
23 36 42 45 42 17 0 17 0 -12 -141 -20 -99 -14 -131 29 -163 34 -26 93 -25
138 1 49 29 87 107 116 243 13 61 220 385 288 451 29 28 36 31 44 19 10 -16 5
-58 -15 -130 -7 -25 -20 -72 -28 -105 -9 -33 -20 -79 -26 -102 -7 -23 -18 -93
-25 -155 -15 -117 -11 -143 26 -189 21 -26 81 -59 106 -59 68 0 157 68 279
217 46 57 89 101 94 97 5 -3 9 -42 9 -88 0 -68 4 -91 26 -134 27 -55 74 -92
116 -92 36 0 128 34 176 64 23 14 63 46 89 71 59 57 73 58 73 3 0 -80 61 -138
145 -138 48 0 87 22 153 84 62 58 193 209 211 243 23 45 51 19 51 -49 0 -47
41 -134 87 -187 66 -76 102 -91 217 -91 92 0 97 1 176 43 95 48 220 154 291
245 27 34 54 62 59 62 13 0 13 -42 0 -76 -19 -50 -32 -177 -21 -206 31 -83
167 -80 219 4 11 18 34 79 51 135 33 113 87 214 197 374 147 213 188 225 138
41 -54 -201 -62 -240 -80 -365 l-19 -129 21 -36 c23 -39 72 -79 112 -89 68
-17 155 45 291 207 52 61 97 107 102 103 4 -4 4 -28 -1 -53 -25 -127 -6 -192
67 -237 46 -28 75 -29 130 -4 54 25 194 166 257 259 76 110 80 101 38 -69 -27
-108 -54 -222 -66 -280 -4 -17 -25 -39 -66 -67 -33 -23 -65 -42 -71 -42 -21 0
-113 -97 -130 -138 -24 -54 -24 -86 0 -137 19 -43 73 -95 97 -95 8 0 17 -7 20
-15 9 -21 157 -21 182 0 90 77 115 104 133 144 18 41 58 179 78 271 24 107 34
124 131 225 52 55 129 139 169 187 41 49 80 88 87 88 7 0 17 -28 24 -67 17
-89 40 -139 91 -197 63 -71 100 -86 213 -86 92 0 97 1 176 43 101 51 225 159
310 267 35 44 66 80 70 80 4 0 10 -35 13 -78 7 -103 30 -162 83 -221 78 -86
185 -111 305 -71 86 29 134 62 220 151 42 44 83 79 92 79 35 0 144 44 190 77
27 19 51 32 54 29 3 -3 1 -31 -5 -63 -36 -190 -37 -191 -19 -228 30 -63 93
-77 170 -38 49 25 71 74 122 280 27 108 29 110 113 233 102 148 170 230 193
230 30 0 32 -20 8 -106 -78 -287 -111 -525 -80 -583 16 -30 98 -81 130 -81 44
1 105 35 162 91 76 75 185 209 244 299 26 41 65 101 86 133 47 72 58 117 34
153 -9 14 -20 24 -25 22 -5 -2 -52 -70 -106 -153 -105 -163 -217 -313 -241
-322 -21 -8 -32 15 -26 56 4 30 94 408 136 571 6 25 11 77 12 115 0 83 -22
138 -65 160 -95 49 -188 -27 -392 -320 -85 -123 -114 -141 -89 -59 4 16 16 65
26 109 9 44 23 105 31 136 8 30 14 70 14 87 0 27 -5 34 -36 47 -75 31 -160 12
-187 -43 -16 -30 -65 -176 -91 -267 -55 -198 -61 -212 -123 -296 -42 -57 -118
-119 -147 -119 -20 0 -21 29 -2 55 7 11 21 47 31 80 9 33 24 83 33 110 12 35
16 87 16 175 0 119 -2 128 -29 178 -63 117 -149 156 -295 134 -188 -27 -349
-166 -464 -401 -165 -337 -409 -593 -564 -593 -93 0 -137 67 -137 208 0 119 4
124 104 124 61 0 89 6 144 29 192 82 343 251 362 405 7 57 -17 130 -58 175
-54 58 -174 77 -302 46 -89 -21 -142 -48 -216 -109 -110 -90 -146 -144 -278
-418 -50 -102 -283 -408 -317 -416 -17 -4 -18 25 -3 65 6 15 14 46 19 68 4 22
24 103 45 180 20 77 41 156 45 175 4 19 24 98 45 175 58 217 62 245 41 261
-31 22 -106 29 -151 13 -34 -12 -44 -23 -72 -78 -33 -66 -37 -76 -97 -254 -37
-111 -70 -168 -230 -402 -100 -146 -132 -181 -151 -165 -8 7 -15 20 -15 28 0
9 25 118 56 242 31 124 63 252 70 285 8 33 21 85 28 115 32 127 45 192 40 205
-6 16 -63 35 -104 35 -76 0 -123 -36 -145 -111 -3 -13 -17 -53 -30 -89 -13
-36 -40 -117 -60 -180 -46 -149 -53 -163 -148 -305 -173 -259 -231 -293 -192
-112 10 45 26 115 36 155 94 362 102 400 98 498 l-4 86 -39 34 c-64 55 -120
43 -196 -43 -37 -42 -157 -219 -259 -380 -67 -107 -74 -95 -35 66 28 120 49
207 70 298 8 35 21 91 29 125 8 35 28 122 45 193 17 72 35 147 41 167 18 69
-10 91 -114 90 -84 -1 -105 -23 -146 -152 -33 -103 -68 -226 -95 -327 -9 -35
-23 -91 -32 -125 -9 -35 -22 -83 -29 -108 -7 -25 -20 -81 -30 -125 -32 -147
-49 -185 -139 -310 -135 -188 -295 -327 -386 -335 -61 -5 -83 1 -114 33 -26
25 -36 46 -45 99 -13 69 -8 162 11 185 7 9 38 13 89 13 67 0 88 5 151 33 172
79 295 202 338 338 25 77 25 112 -1 169 -41 91 -106 130 -214 130 -130 0 -234
-36 -334 -114 -112 -88 -183 -192 -282 -411 -25 -56 -192 -311 -238 -364 -20
-23 -35 -32 -46 -27 -24 9 -15 62 56 346 32 129 59 246 59 259 0 14 -7 33 -16
43 -16 16 -16 21 0 61 23 60 20 88 -13 134 -33 46 -116 83 -187 83 -69 0 -183
-30 -242 -63 -112 -63 -248 -217 -320 -362 -59 -119 -63 -127 -125 -225 -108
-168 -198 -280 -225 -280 -12 0 -14 13 -9 70 3 38 13 93 21 122 8 29 21 80 30
113 33 134 45 182 57 225 17 64 39 189 39 226 0 56 -30 124 -64 145 -65 40
-133 11 -208 -88 -40 -52 -172 -249 -242 -360 -14 -24 -31 -43 -36 -43 -14 0
-12 49 4 101 7 24 21 80 31 124 10 44 23 105 30 135 8 30 20 84 28 120 9 36
23 97 32 135 9 39 23 99 31 135 8 36 22 88 30 116 29 104 12 126 -96 126 -82
0 -102 -12 -130 -77 -16 -37 -73 -221 -90 -290 -4 -16 -18 -66 -30 -110 -12
-44 -46 -173 -74 -286 -33 -128 -63 -224 -79 -251 -53 -91 -153 -215 -242
-303 -82 -80 -209 -183 -239 -194 -6 -2 -45 -20 -86 -41 -52 -25 -102 -40
-163 -50 -81 -12 -93 -12 -140 5 -191 67 -287 287 -287 656 0 349 112 668 323
920 106 127 308 239 431 239 50 0 60 -4 95 -36 80 -72 78 -200 -6 -374 -74
-154 -207 -270 -325 -285 -27 -4 -48 -9 -48 -13 0 -19 71 -46 145 -57 214 -32
419 86 534 305 45 86 77 220 66 277 -23 122 -90 212 -193 259 -48 21 -74 26
-187 38 -16 2 -70 -1 -120 -5z m6870 -909 c25 -49 15 -205 -22 -343 l-16 -58
-42 7 c-26 3 -51 1 -64 -6 -31 -16 -61 -69 -61 -108 0 -38 27 -127 47 -157 21
-31 16 -55 -28 -122 -53 -82 -91 -113 -135 -113 -57 0 -69 31 -68 175 1 124
12 177 68 350 61 185 176 362 256 394 40 15 48 13 65 -19z m-4772 6 c45 -34
-5 -136 -87 -176 -25 -12 -48 -26 -51 -30 -3 -5 8 -21 24 -37 l30 -28 -54
-213 c-29 -118 -55 -215 -57 -217 -78 -85 -166 -165 -180 -165 -35 0 -43 41
-29 148 23 174 74 337 157 501 29 59 67 126 84 149 52 72 120 100 163 68z
m989 -3 c13 -12 18 -31 18 -71 0 -103 -91 -231 -244 -343 -118 -87 -138 -77
-95 46 51 147 139 288 220 352 47 37 73 41 101 16z m2920 0 c29 -26 24 -101
-12 -179 -33 -74 -122 -169 -230 -247 -69 -51 -116 -62 -106 -27 3 11 9 30 12
43 5 22 25 74 52 137 46 108 154 253 206 276 41 18 56 17 78 -3z m-1347 -1303
c10 -17 -37 -170 -56 -181 -43 -22 -71 27 -48 84 14 33 75 107 90 107 4 0 11
-4 14 -10z"/>
<path d="M15550 2520 c-109 -11 -273 -38 -338 -55 -31 -8 -66 -15 -79 -15 -12
0 -40 -6 -60 -14 -21 -7 -72 -23 -113 -35 -246 -72 -491 -220 -623 -378 -86
-102 -105 -184 -66 -288 41 -109 170 -207 292 -222 l48 -6 -7 80 c-8 99 6 151
78 287 95 179 255 315 537 456 32 16 127 49 160 55 33 7 33 7 28 -26 -2 -19
-16 -65 -30 -104 -14 -38 -39 -117 -57 -175 -17 -58 -38 -123 -45 -145 -12
-35 -40 -127 -92 -305 -8 -30 -21 -73 -28 -95 -21 -69 -44 -146 -75 -255 -49
-172 -58 -202 -77 -260 -26 -82 -24 -195 5 -242 43 -69 135 -119 244 -133 57
-7 57 -7 63 21 6 29 25 112 50 214 7 30 21 91 30 135 23 101 53 217 59 222 2
2 44 0 93 -5 106 -11 201 -51 271 -116 127 -116 107 -291 -46 -411 -127 -100
-230 -130 -442 -130 -173 1 -236 15 -377 83 -75 35 -164 115 -205 183 -31 51
-58 137 -58 186 0 55 -26 83 -75 83 -68 0 -141 -44 -171 -102 -42 -80 18 -230
129 -321 170 -139 530 -246 828 -247 406 0 731 129 819 327 53 118 48 223 -15
317 -39 59 -127 133 -203 171 -60 30 -72 52 -36 65 14 6 31 10 38 10 29 0 165
51 230 85 139 75 224 146 307 256 64 86 95 156 110 251 11 67 10 87 -4 156
-21 95 -39 135 -91 197 -95 113 -230 186 -415 226 -75 16 -142 21 -306 24
-115 2 -244 0 -285 -5z m487 -131 c97 -45 184 -132 213 -212 30 -80 33 -242 7
-328 -72 -239 -278 -402 -572 -454 -112 -19 -184 -20 -191 -1 -5 14 3 63 31
186 50 215 115 546 115 588 0 22 -6 55 -14 74 -17 39 -88 108 -112 108 -21 0
-74 28 -74 40 0 24 178 40 378 35 145 -4 155 -6 219 -36z"/>
<path d="M10700 2503 c-265 -44 -607 -167 -769 -277 -286 -195 -376 -360 -285
-527 52 -94 169 -173 276 -186 l46 -6 4 104 c3 101 5 108 49 199 51 105 147
230 249 326 118 111 365 237 540 275 71 16 377 16 430 0 65 -19 178 -74 231
-113 107 -77 202 -230 235 -375 21 -96 24 -285 6 -403 -25 -162 -126 -405
-217 -525 -57 -75 -187 -196 -265 -247 -131 -85 -189 -110 -345 -149 -130 -32
-372 -33 -460 -2 -123 45 -217 110 -284 197 -51 66 -76 123 -91 211 -16 92
-20 99 -65 103 -52 5 -114 -21 -156 -64 -33 -34 -34 -38 -33 -107 1 -114 46
-193 165 -290 25 -20 50 -37 54 -37 5 0 16 -6 24 -14 9 -7 30 -18 46 -24 17
-6 55 -20 85 -32 145 -58 289 -81 505 -82 275 -1 433 29 638 121 283 128 545
373 646 606 12 28 26 59 31 70 61 132 96 397 71 551 -13 84 -52 207 -91 285
-72 143 -228 278 -385 335 -136 49 -153 53 -385 84 -97 14 -403 9 -500 -7z"/>
<path d="M10771 2352 c-11 -20 -36 -96 -81 -242 -18 -58 -38 -123 -46 -145 -7
-22 -34 -110 -59 -195 -48 -165 -71 -240 -90 -305 -15 -48 -34 -113 -75 -255
-17 -58 -35 -121 -41 -139 -22 -66 -38 -146 -39 -187 -1 -119 107 -215 268
-239 53 -8 68 3 77 58 4 23 13 65 20 92 8 28 20 79 29 115 8 36 21 94 29 130
16 66 39 167 62 275 8 33 20 89 28 125 40 175 66 295 93 425 9 44 23 108 31
143 8 35 17 94 20 132 9 113 -38 183 -145 215 -61 19 -69 19 -81 -3z"/>
<path d="M16971 2199 c-32 -4 -50 -13 -66 -32 -18 -23 -66 -159 -96 -272 -5
-16 -15 -55 -23 -85 -8 -30 -31 -118 -51 -195 -21 -77 -41 -156 -45 -175 -4
-19 -19 -84 -34 -145 -58 -234 -78 -334 -97 -486 -11 -89 -11 -99 7 -135 19
-40 69 -80 112 -91 39 -9 95 14 153 64 60 53 204 219 234 271 29 49 45 41 45
-20 0 -98 49 -209 112 -259 18 -14 57 -34 87 -44 140 -46 298 23 449 198 18
20 41 37 52 37 36 0 133 39 187 75 29 19 53 34 54 33 1 -2 2 -51 4 -109 3
-126 26 -186 87 -227 33 -21 45 -24 90 -18 67 9 166 57 209 102 18 19 39 34
47 34 15 0 14 -7 -22 -150 -21 -82 -23 -86 -69 -115 -25 -16 -75 -48 -109 -71
-143 -92 -171 -246 -58 -329 18 -14 40 -25 47 -25 8 0 16 -7 19 -15 9 -21 157
-21 182 0 9 8 35 31 58 49 66 57 107 153 153 366 25 110 32 123 136 230 116
119 213 237 300 366 33 49 63 91 67 92 14 6 9 162 -4 162 -7 0 -35 -37 -62
-83 -126 -211 -370 -502 -343 -408 33 114 113 412 155 580 16 62 15 63 -6 80
l-21 16 21 60 c21 61 21 61 2 100 -25 53 -123 105 -196 105 -234 0 -432 -158
-591 -473 -30 -58 -71 -128 -91 -155 -42 -54 -126 -122 -152 -122 -20 0 -18 7
33 150 37 104 37 107 38 260 l0 155 -33 51 c-43 69 -86 100 -159 115 -47 10
-76 10 -133 0 -190 -31 -330 -155 -462 -411 -83 -159 -214 -362 -301 -464 -55
-65 -84 -29 -58 73 5 20 16 65 24 101 14 61 25 106 62 263 40 172 77 328 90
385 39 168 62 265 96 405 19 80 19 90 5 111 -17 27 -62 35 -135 25z m768 -575
c27 -34 27 -100 2 -250 -24 -145 -30 -156 -81 -148 -51 8 -86 -13 -111 -70
-18 -42 -18 -44 0 -107 10 -35 26 -80 36 -100 l18 -37 -33 -57 c-18 -31 -49
-74 -70 -96 -30 -32 -44 -39 -74 -39 -57 0 -76 40 -76 158 0 278 179 694 328
759 37 17 38 16 61 -13z m1016 -4 c37 -41 -10 -131 -90 -170 -25 -12 -47 -25
-50 -30 -6 -10 22 -40 37 -40 15 0 5 -73 -24 -170 -14 -47 -28 -96 -31 -110
-36 -166 -80 -244 -175 -306 -66 -45 -82 -36 -82 41 0 183 129 556 248 719 59
81 129 108 167 66z m-362 -1326 c-3 -44 -35 -133 -54 -150 -27 -24 -59 -2 -59
39 1 38 14 63 58 112 38 41 58 41 55 -1z"/>
<path d="M13645 1736 c-18 -13 -18 -15 6 -52 22 -36 24 -49 24 -159 0 -129
-12 -189 -66 -348 -67 -194 -186 -392 -233 -385 -32 5 -47 86 -53 288 -4 136
0 220 16 377 11 111 18 208 15 216 -7 19 -69 47 -104 47 -49 0 -100 -31 -117
-70 -17 -41 -53 -254 -53 -319 0 -37 -10 -60 -62 -140 -34 -53 -86 -130 -117
-171 -199 -271 -411 -376 -496 -247 -30 47 -38 222 -11 265 5 8 35 12 84 12
57 0 91 6 132 23 208 85 366 260 378 418 7 92 -53 187 -136 216 -74 26 -215
13 -317 -30 -66 -28 -184 -124 -240 -196 -45 -60 -145 -251 -145 -280 0 -9 -7
-36 -16 -61 -11 -31 -16 -84 -16 -170 -1 -114 1 -131 26 -192 32 -78 92 -150
147 -178 58 -30 212 -28 277 3 141 68 270 185 406 367 43 58 85 106 92 108 11
3 14 -14 14 -74 0 -108 28 -270 55 -325 105 -206 315 -89 588 327 57 87 89
147 147 279 56 126 66 301 21 366 -28 42 -69 69 -131 86 -58 16 -92 16 -115
-1z m-883 -113 c29 -26 25 -122 -8 -181 -52 -94 -128 -174 -236 -249 -103 -71
-120 -54 -73 71 51 137 121 250 197 322 60 58 88 66 120 37z"/>
</g>
</svg>
